<mxfile host="app.diagrams.net" agent="Mozilla/5.0 (X11; Linux x86_64) AppleWebKit/537.36 (KHTML, like Gecko) Chrome/131.0.0.0 Safari/537.36" version="26.2.14">
  <diagram name="Page-1" id="ErRTHcPdt3OHc8kehyuI">
    <mxGraphModel dx="994" dy="617" grid="1" gridSize="10" guides="1" tooltips="1" connect="1" arrows="1" fold="1" page="1" pageScale="1" pageWidth="850" pageHeight="1100" math="0" shadow="0">
      <root>
        <mxCell id="0" />
        <mxCell id="1" parent="0" />
        <mxCell id="J92DKjTNIR6uXJXyGXho-9" value="" style="edgeStyle=orthogonalEdgeStyle;rounded=0;orthogonalLoop=1;jettySize=auto;html=1;strokeWidth=4;fontSize=17;fontFamily=Times New Roman;" edge="1" parent="1" source="J92DKjTNIR6uXJXyGXho-6" target="J92DKjTNIR6uXJXyGXho-8">
          <mxGeometry relative="1" as="geometry" />
        </mxCell>
        <mxCell id="J92DKjTNIR6uXJXyGXho-6" value="&lt;ul&gt;&lt;li&gt;Internet texts&lt;/li&gt;&lt;li&gt;Books&lt;/li&gt;&lt;li&gt;Wikipedia&lt;/li&gt;&lt;li&gt;Research Articles&lt;/li&gt;&lt;li&gt;Blogs&lt;/li&gt;&lt;li&gt;News&lt;/li&gt;&lt;/ul&gt;" style="rounded=0;whiteSpace=wrap;html=1;align=left;strokeWidth=4;fillColor=#f8cecc;strokeColor=#b85450;fontSize=17;fontFamily=Times New Roman;" vertex="1" parent="1">
          <mxGeometry x="160" y="110" width="200" height="170" as="geometry" />
        </mxCell>
        <mxCell id="J92DKjTNIR6uXJXyGXho-7" value="" style="verticalLabelPosition=bottom;sketch=0;aspect=fixed;html=1;verticalAlign=top;strokeColor=none;align=center;outlineConnect=0;shape=mxgraph.citrix.document;strokeWidth=4;fontSize=17;fontFamily=Times New Roman;" vertex="1" parent="1">
          <mxGeometry x="130" y="140" width="47" height="72" as="geometry" />
        </mxCell>
        <mxCell id="J92DKjTNIR6uXJXyGXho-12" value="" style="edgeStyle=orthogonalEdgeStyle;rounded=0;orthogonalLoop=1;jettySize=auto;html=1;strokeWidth=4;fontSize=17;fontFamily=Times New Roman;" edge="1" parent="1" source="J92DKjTNIR6uXJXyGXho-8" target="J92DKjTNIR6uXJXyGXho-11">
          <mxGeometry relative="1" as="geometry" />
        </mxCell>
        <mxCell id="J92DKjTNIR6uXJXyGXho-24" style="edgeStyle=orthogonalEdgeStyle;rounded=0;orthogonalLoop=1;jettySize=auto;html=1;entryX=0;entryY=0.5;entryDx=0;entryDy=0;strokeWidth=4;fontSize=17;fontFamily=Times New Roman;" edge="1" parent="1" target="J92DKjTNIR6uXJXyGXho-23">
          <mxGeometry relative="1" as="geometry">
            <mxPoint x="499" y="171" as="sourcePoint" />
            <Array as="points">
              <mxPoint x="499" y="45" />
            </Array>
          </mxGeometry>
        </mxCell>
        <mxCell id="J92DKjTNIR6uXJXyGXho-8" value="" style="sketch=0;outlineConnect=0;fontColor=#232F3E;gradientColor=none;fillColor=#01A88D;strokeColor=none;dashed=0;verticalLabelPosition=bottom;verticalAlign=top;align=center;html=1;fontSize=17;fontStyle=0;aspect=fixed;pointerEvents=1;shape=mxgraph.aws4.sagemaker_model;strokeWidth=4;fontFamily=Times New Roman;" vertex="1" parent="1">
          <mxGeometry x="460" y="156" width="78" height="78" as="geometry" />
        </mxCell>
        <mxCell id="J92DKjTNIR6uXJXyGXho-10" value="Train" style="text;html=1;align=center;verticalAlign=middle;whiteSpace=wrap;rounded=0;strokeWidth=4;fontSize=17;fontFamily=Times New Roman;" vertex="1" parent="1">
          <mxGeometry x="380" y="161" width="60" height="30" as="geometry" />
        </mxCell>
        <mxCell id="J92DKjTNIR6uXJXyGXho-11" value="&lt;ul&gt;&lt;li&gt;Classification&lt;/li&gt;&lt;li&gt;Summary&lt;/li&gt;&lt;li&gt;Translation&lt;/li&gt;&lt;li&gt;Personal Assistant&lt;/li&gt;&lt;li&gt;Grammar Check&lt;/li&gt;&lt;li&gt;Code Writing&lt;/li&gt;&lt;/ul&gt;" style="rounded=0;whiteSpace=wrap;html=1;align=left;strokeWidth=4;fillColor=#e51400;fontColor=#ffffff;strokeColor=#B20000;fontSize=17;fontFamily=Times New Roman;" vertex="1" parent="1">
          <mxGeometry x="720" y="110" width="200" height="170" as="geometry" />
        </mxCell>
        <mxCell id="J92DKjTNIR6uXJXyGXho-19" value="" style="shape=image;html=1;verticalAlign=top;verticalLabelPosition=bottom;labelBackgroundColor=#ffffff;imageAspect=0;aspect=fixed;image=https://cdn1.iconfinder.com/data/icons/icons-for-a-site-1/64/advantage_creation-128.png;rotation=-45;strokeWidth=4;fontSize=17;fontFamily=Times New Roman;" vertex="1" parent="1">
          <mxGeometry x="870" y="140" width="98" height="98" as="geometry" />
        </mxCell>
        <mxCell id="J92DKjTNIR6uXJXyGXho-22" style="edgeStyle=orthogonalEdgeStyle;rounded=0;orthogonalLoop=1;jettySize=auto;html=1;shape=link;strokeWidth=4;fontSize=17;fontFamily=Times New Roman;" edge="1" parent="1" source="J92DKjTNIR6uXJXyGXho-21">
          <mxGeometry relative="1" as="geometry">
            <mxPoint x="641" y="195" as="targetPoint" />
          </mxGeometry>
        </mxCell>
        <mxCell id="J92DKjTNIR6uXJXyGXho-21" value="" style="shape=datastore;html=1;labelPosition=center;verticalLabelPosition=bottom;align=center;verticalAlign=top;strokeWidth=4;fontSize=17;fontFamily=Times New Roman;" vertex="1" parent="1">
          <mxGeometry x="611" y="325" width="60" height="90" as="geometry" />
        </mxCell>
        <mxCell id="J92DKjTNIR6uXJXyGXho-23" value="&lt;ul&gt;&lt;li&gt;Text Completion&lt;/li&gt;&lt;li&gt;Few-shot Capabilities&lt;/li&gt;&lt;/ul&gt;" style="rounded=0;whiteSpace=wrap;html=1;align=left;strokeWidth=4;fillColor=#ffcc99;strokeColor=#36393d;fontSize=17;fontFamily=Times New Roman;" vertex="1" parent="1">
          <mxGeometry x="570" y="15" width="200" height="60" as="geometry" />
        </mxCell>
        <mxCell id="J92DKjTNIR6uXJXyGXho-25" value="Pretrained LLM&lt;div&gt;(foundation model)&lt;/div&gt;" style="text;html=1;align=center;verticalAlign=middle;whiteSpace=wrap;rounded=0;strokeWidth=4;fontSize=17;fontFamily=Times New Roman;" vertex="1" parent="1">
          <mxGeometry x="420" y="250" width="140" height="30" as="geometry" />
        </mxCell>
        <mxCell id="J92DKjTNIR6uXJXyGXho-26" value="Train" style="text;html=1;align=center;verticalAlign=middle;whiteSpace=wrap;rounded=0;strokeWidth=4;fontSize=17;fontFamily=Times New Roman;" vertex="1" parent="1">
          <mxGeometry x="610" y="156" width="60" height="30" as="geometry" />
        </mxCell>
        <mxCell id="J92DKjTNIR6uXJXyGXho-27" value="Labeled Data" style="text;html=1;align=center;verticalAlign=middle;whiteSpace=wrap;rounded=0;strokeWidth=4;fontSize=17;fontFamily=Times New Roman;" vertex="1" parent="1">
          <mxGeometry x="690" y="355" width="60" height="30" as="geometry" />
        </mxCell>
        <mxCell id="J92DKjTNIR6uXJXyGXho-28" value="Finetuned LLM" style="text;html=1;align=center;verticalAlign=middle;whiteSpace=wrap;rounded=0;strokeWidth=4;fontSize=17;fontFamily=Times New Roman;" vertex="1" parent="1">
          <mxGeometry x="790" y="295" width="60" height="30" as="geometry" />
        </mxCell>
        <mxCell id="J92DKjTNIR6uXJXyGXho-29" value="&lt;i&gt;The LLM has a few capabilities after pretraining&lt;/i&gt;" style="text;html=1;align=center;verticalAlign=middle;whiteSpace=wrap;rounded=0;strokeWidth=4;fontSize=17;fontFamily=Times New Roman;" vertex="1" parent="1">
          <mxGeometry x="834" y="10" width="236" height="30" as="geometry" />
        </mxCell>
        <mxCell id="J92DKjTNIR6uXJXyGXho-30" value="" style="endArrow=classic;html=1;rounded=0;exitX=0.056;exitY=0.995;exitDx=0;exitDy=0;exitPerimeter=0;strokeWidth=2;fontSize=17;fontFamily=Times New Roman;" edge="1" parent="1" source="J92DKjTNIR6uXJXyGXho-29">
          <mxGeometry width="50" height="50" relative="1" as="geometry">
            <mxPoint x="860" y="70" as="sourcePoint" />
            <mxPoint x="790" y="60" as="targetPoint" />
          </mxGeometry>
        </mxCell>
        <mxCell id="J92DKjTNIR6uXJXyGXho-31" value="&lt;i&gt;An LLM is pre-trained on unlabeld text data&lt;/i&gt;" style="text;html=1;align=center;verticalAlign=middle;whiteSpace=wrap;rounded=0;strokeWidth=4;fontSize=17;fontFamily=Times New Roman;" vertex="1" parent="1">
          <mxGeometry x="280" y="20" width="170" height="30" as="geometry" />
        </mxCell>
        <mxCell id="J92DKjTNIR6uXJXyGXho-32" value="" style="endArrow=classic;html=1;rounded=0;strokeWidth=2;fontSize=17;fontFamily=Times New Roman;" edge="1" parent="1">
          <mxGeometry width="50" height="50" relative="1" as="geometry">
            <mxPoint x="400" y="60" as="sourcePoint" />
            <mxPoint x="410" y="140" as="targetPoint" />
          </mxGeometry>
        </mxCell>
        <mxCell id="J92DKjTNIR6uXJXyGXho-34" value="&lt;i&gt;A pretrained LLM can be further trained on a labeled datset to obtain a finetuned LLM for specific tasks&lt;/i&gt;" style="text;html=1;align=center;verticalAlign=middle;whiteSpace=wrap;rounded=0;strokeWidth=4;fontSize=17;fontFamily=Times New Roman;" vertex="1" parent="1">
          <mxGeometry x="315" y="370" width="255" height="30" as="geometry" />
        </mxCell>
        <mxCell id="J92DKjTNIR6uXJXyGXho-35" value="" style="endArrow=classic;html=1;rounded=0;strokeWidth=2;fontSize=17;fontFamily=Times New Roman;" edge="1" parent="1">
          <mxGeometry width="50" height="50" relative="1" as="geometry">
            <mxPoint x="540" y="340" as="sourcePoint" />
            <mxPoint x="620" y="210" as="targetPoint" />
          </mxGeometry>
        </mxCell>
        <mxCell id="J92DKjTNIR6uXJXyGXho-36" value="&lt;font style=&quot;font-size: 17px;&quot;&gt;A Portion of the Internet ~10 TB&lt;/font&gt;" style="text;html=1;align=center;verticalAlign=middle;whiteSpace=wrap;rounded=0;" vertex="1" parent="1">
          <mxGeometry x="160" y="290" width="180" height="30" as="geometry" />
        </mxCell>
      </root>
    </mxGraphModel>
  </diagram>
</mxfile>
